 0: REM GENRE "Electronica"
 1: REM DATE "1998"
 2: PERFORMER "Faithless"
 3: TITLE "Live in Berlin"
 4: CATALOG 1234567890123
 5: SONGWRITER "Paul McCartney"
 6: CDTEXTFILE C:\TEST\DISC.CDT
 7: CDTEXTFILE "C:\LONG FILENAME.CDT"
 8: ISRC ABCDE1234567
 9: POSTGAP 00:02:00
10: PREGAP 00:02:00
11: FILE "Faithless - Live in Berlin.mp3" MP3
12:   TRACK 01 AUDIO
13:     TITLE "Reverence"
14:     PERFORMER "Faithless"
15:     INDEX 01 00:00:00
16:   TRACK 02 MODE1/2048
17:     TITLE "She's My Baby"
18:     PERFORMER "Faithless"
19:     INDEX 01 06:42:00
20:   TRACK 03 AUDIO
21:     TITLE "Take the Long Way Home"
22:     PERFORMER "Faithless"
23:     INDEX 01 10:54:00
24:   TRACK 04 AUDIO
25:     TITLE "Insomnia"
26:     PERFORMER "Faithless"
27:     INDEX 01 17:04:00
28:   TRACK 05 AUDIO
29:     TITLE "Bring the Family Back"
30:     PERFORMER "Faithless"
31:     INDEX 01 25:44:00
32:   TRACK 06 AUDIO
33:     TITLE "Salva Mea"
34:     PERFORMER "Faithless"
35:     INDEX 01 30:50:00
36:   TRACK 07 AUDIO
37:     TITLE "Dirty Old Man"
38:     PERFORMER "Faithless"
39:     INDEX 01 38:24:00
40:   TRACK 08 AUDIO
41:     TITLE "God Is a DJ"
42:     PERFORMER "Faithless"
43:     INDEX 01 42:35:00
